<svg width="16" height="16" viewBox="0 0 16 16" fill="none" xmlns="http://www.w3.org/2000/svg">
<path d="M8.01 4.66667C11.1773 4.66667 13.3853 6.67467 14.346 7.75734C13.412 8.982 11.204 11.3333 8.01 11.3333C5.06333 11.3333 2.72333 8.976 1.69133 7.72867C2.68667 6.63067 4.90267 4.66667 8.01 4.66667ZM8.01 3.33334C2.964 3.33334 0 7.70067 0 7.70067C0 7.70067 3.22333 12.6667 8.01 12.6667C13.1653 12.6667 16 7.70067 16 7.70067C16 7.70067 13.1393 3.33334 8.01 3.33334ZM8 5.33334C6.52667 5.33334 5.33333 6.52734 5.33333 8C5.33333 9.47267 6.52667 10.6667 8 10.6667C9.47267 10.6667 10.6667 9.47267 10.6667 8C10.6667 6.52734 9.47267 5.33334 8 5.33334ZM7.99733 7.99934C7.62133 8.37534 7.01133 8.37534 6.63467 7.99934C6.258 7.62334 6.258 7.01267 6.63467 6.63667C7.01067 6.26067 7.62067 6.26067 7.99733 6.63667C8.374 7.01267 8.374 7.62267 7.99733 7.99934Z" fill="#224A5E"/>
</svg>
