<svg width="20" height="20" viewBox="0 0 20 20" fill="none" xmlns="http://www.w3.org/2000/svg">
<path d="M7.49999 18.3333H12.5C16.6667 18.3333 18.3333 16.6667 18.3333 12.5V7.5C18.3333 3.33333 16.6667 1.66666 12.5 1.66666H7.49999C3.33332 1.66666 1.66666 3.33333 1.66666 7.5V12.5C1.66666 16.6667 3.33332 18.3333 7.49999 18.3333Z" stroke="#023047" stroke-width="1.5" stroke-linecap="round" stroke-linejoin="round"/>
<path d="M13.5666 11.3417C12.625 12.2833 11.275 12.575 10.0833 12.2L7.92497 14.35C7.77497 14.5083 7.46664 14.6083 7.24164 14.575L6.24164 14.4417C5.9083 14.4 5.6083 14.0833 5.5583 13.7583L5.42497 12.7583C5.39164 12.5417 5.49997 12.2333 5.64997 12.075L7.79997 9.92501C7.4333 8.73334 7.71664 7.38334 8.6583 6.44168C10.0083 5.09168 12.2083 5.09168 13.5666 6.44168C14.9166 7.78334 14.9166 9.98334 13.5666 11.3417Z" stroke="#023047" stroke-width="1.5" stroke-miterlimit="10" stroke-linecap="round" stroke-linejoin="round"/>
<path d="M8.70842 13.5667L8.00009 12.85" stroke="#292D32" stroke-width="1.5" stroke-miterlimit="10" stroke-linecap="round" stroke-linejoin="round"/>
<path d="M11.162 8.91663H11.1695" stroke="#292D32" stroke-width="2" stroke-linecap="round" stroke-linejoin="round"/>
</svg>
