<?xml version="1.0" encoding="utf-8"?>
<!-- Generator: Adobe Illustrator 21.0.2, SVG Export Plug-In . SVG Version: 6.00 Build 0)  -->
<svg version="1.1" xmlns="http://www.w3.org/2000/svg" xmlns:xlink="http://www.w3.org/1999/xlink" x="0px" y="0px"
	 viewBox="0 0 814.6 128.7" style="enable-background:new 0 0 814.6 128.7;" xml:space="preserve">
<style type="text/css">
	.st0{display:none;}
	.st1{display:inline;}
	.st2{fill:#FFD600;}
	.st3{fill:#FF6800;}
	.st4{fill:#CA00FF;}
	.st5{fill:#FF00B6;}
	.st6{fill:#75DE00;}
	.st7{fill:#FF0000;}
	.st8{fill:#026BF5;}
	.st9{fill:#3D558B;}
	.st10{font-family:'Ubuntu-Bold';}
	.st11{font-size:145.7003px;}
</style>
<g id="Layer_2" class="st0">
	<g class="st1">
		<g>
			<path class="st2" d="M53.2,59.8c-3.1,0-5.7,2.3-6.1,5.4h-25c-0.4,0-0.8,0.4-0.8,0.8c0,0.4,0.3,0.8,0.8,0.8h25
				c0.4,3,3,5.4,6.1,5.4c3.4,0,6.2-2.8,6.2-6.2C59.4,62.5,56.6,59.8,53.2,59.8z"/>
			<path class="st3" d="M49.2,75c-2.6,0-4.8,1.9-5.2,4.5h-2.4c-0.4,0-0.8,0.3-0.8,0.8c0,0.4,0.3,0.8,0.8,0.8H44
				c0.4,2.5,2.6,4.5,5.2,4.5c2.9,0,5.3-2.4,5.3-5.3C54.5,77.4,52.1,75,49.2,75z"/>
			<path class="st3" d="M49.2,47c-2.6,0-4.8,1.9-5.2,4.5h-2.4c-0.4,0-0.8,0.3-0.8,0.8c0,0.4,0.3,0.8,0.8,0.8H44
				c0.4,2.5,2.6,4.5,5.2,4.5c2.9,0,5.3-2.4,5.3-5.3C54.5,49.4,52.1,47,49.2,47z"/>
			<path class="st4" d="M18.7,65.1h-1.8c-0.4-3-3-5.4-6.1-5.4c-3.4,0-6.2,2.8-6.2,6.2c0,3.4,2.8,6.2,6.2,6.2c3.1,0,5.7-2.3,6.1-5.4
				h1.8c0.4,0,0.8-0.4,0.8-0.8C19.4,65.5,19.1,65.1,18.7,65.1z"/>
			<path class="st5" d="M38.2,51.5H19.9C19.6,49,17.4,47,14.8,47c-2.9,0-5.3,2.4-5.3,5.3c0,2.9,2.4,5.3,5.3,5.3
				c2.6,0,4.8-1.9,5.2-4.5h18.3c0.4,0,0.8-0.4,0.8-0.8C39,51.8,38.7,51.5,38.2,51.5z"/>
			<path class="st5" d="M38.2,79.5H19.9c-0.4-2.5-2.6-4.5-5.2-4.5c-2.9,0-5.3,2.4-5.3,5.3c0,2.9,2.4,5.3,5.3,5.3
				c2.6,0,4.8-1.9,5.2-4.5h18.3c0.4,0,0.8-0.3,0.8-0.8C39,79.8,38.6,79.5,38.2,79.5z"/>
			<g>
				<path class="st6" d="M40.8,37.2c-2.4,0-4.3,1.7-4.7,4h-3.9c-0.4,0-0.8,0.4-0.8,0.8c0,0.4,0.3,0.8,0.8,0.8h3.9
					c0.4,2.2,2.3,4,4.7,4c2.6,0,4.7-2.1,4.7-4.7C45.5,39.3,43.4,37.2,40.8,37.2z"/>
				<circle class="st7" cx="31.9" cy="35" r="4.3"/>
				<path class="st5" d="M32.3,26.6h-5.6c-0.4-1.7-1.8-2.9-3.6-2.9c-2,0-3.7,1.6-3.7,3.7s1.6,3.7,3.7,3.7c1.8,0,3.2-1.2,3.6-2.9h5.6
					c0.4,0,0.8-0.4,0.8-0.8C33.1,26.9,32.8,26.6,32.3,26.6z"/>
				<path class="st8" d="M22.6,18.5h-3.3c-0.4-1.5-1.7-2.5-3.2-2.5c-1.8,0-3.3,1.5-3.3,3.3c0,1.8,1.5,3.3,3.3,3.3
					c1.6,0,2.9-1.1,3.2-2.5h3.3c0.4,0,0.8-0.4,0.8-0.8C23.3,18.8,23,18.5,22.6,18.5z"/>
				<path class="st5" d="M42.1,9.4H14.5c-0.3-1.2-1.4-2.1-2.7-2.1c-1.6,0-2.8,1.3-2.8,2.8c0,1.6,1.3,2.8,2.8,2.8
					c1.3,0,2.4-0.9,2.7-2.1h27.6c0.4,0,0.8-0.4,0.8-0.8C42.9,9.8,42.5,9.4,42.1,9.4z"/>
				<path class="st8" d="M28.8,41.2h-1.4c-0.3-2.3-2.3-4.1-4.7-4.1c-2.6,0-4.7,2.1-4.7,4.7c0,2.6,2.1,4.7,4.7,4.7
					c2.3,0,4.2-1.6,4.6-3.8h1.4c0.4,0,0.8-0.3,0.8-0.8C29.6,41.5,29.3,41.2,28.8,41.2z"/>
				<path class="st3" d="M40.9,23.8c-1.7,0-3.2,1.2-3.6,2.8h-1.4c-0.4,0-0.8,0.3-0.8,0.8c0,0.4,0.4,0.8,0.8,0.8h1.4
					c0.3,1.7,1.8,3,3.6,3c2,0,3.7-1.6,3.7-3.7C44.6,25.4,42.9,23.8,40.9,23.8z"/>
				<path class="st6" d="M47.9,16c-1.5,0-2.8,1.1-3.2,2.5H26.1c-0.4,0-0.8,0.4-0.8,0.8c0,0.4,0.3,0.8,0.8,0.8h18.5
					c0.3,1.5,1.7,2.6,3.2,2.6c1.8,0,3.3-1.5,3.3-3.3C51.2,17.5,49.7,16,47.9,16z"/>
				<path class="st3" d="M52.2,7.4c-1.3,0-2.4,0.9-2.7,2.1h-4.1c-0.4,0-0.8,0.4-0.8,0.8c0,0.4,0.4,0.8,0.8,0.8h4.1
					c0.3,1.2,1.4,2.1,2.7,2.1c1.6,0,2.8-1.3,2.8-2.8C55.1,8.7,53.8,7.4,52.2,7.4z"/>
			</g>
			<g>
				<path class="st6" d="M23.2,94.7c2.4,0,4.3-1.7,4.7-4h3.9c0.4,0,0.8-0.4,0.8-0.8c0-0.4-0.3-0.8-0.8-0.8h-3.9
					c-0.4-2.2-2.3-4-4.7-4c-2.6,0-4.7,2.1-4.7,4.7C18.5,92.5,20.6,94.7,23.2,94.7z"/>
				<circle class="st7" cx="32.1" cy="96.9" r="4.3"/>
				<path class="st5" d="M31.6,105.3h5.6c0.4,1.7,1.8,2.9,3.6,2.9c2,0,3.7-1.6,3.7-3.7c0-2-1.6-3.7-3.7-3.7c-1.8,0-3.2,1.2-3.6,2.9
					h-5.6c-0.4,0-0.8,0.4-0.8,0.8C30.9,104.9,31.2,105.3,31.6,105.3z"/>
				<path class="st8" d="M41.4,113.4h3.3c0.4,1.5,1.7,2.5,3.2,2.5c1.8,0,3.3-1.5,3.3-3.3c0-1.8-1.5-3.3-3.3-3.3
					c-1.6,0-2.9,1.1-3.2,2.5h-3.3c-0.4,0-0.8,0.4-0.8,0.8C40.6,113.1,41,113.4,41.4,113.4z"/>
				<path class="st5" d="M21.9,122.5h27.6c0.3,1.2,1.4,2.1,2.7,2.1c1.6,0,2.8-1.3,2.8-2.8c0-1.6-1.3-2.8-2.8-2.8
					c-1.3,0-2.4,0.9-2.7,2.1H21.9c-0.4,0-0.8,0.4-0.8,0.8C21.1,122.1,21.4,122.5,21.9,122.5z"/>
				<path class="st8" d="M35.2,90.7h1.4c0.3,2.3,2.3,4.1,4.7,4.1c2.6,0,4.7-2.1,4.7-4.7c0-2.6-2.1-4.7-4.7-4.7
					c-2.3,0-4.2,1.6-4.6,3.8h-1.4c-0.4,0-0.8,0.3-0.8,0.8C34.4,90.4,34.7,90.7,35.2,90.7z"/>
				<path class="st3" d="M23.1,108.1c1.7,0,3.2-1.2,3.6-2.8h1.4c0.4,0,0.8-0.3,0.8-0.8c0-0.4-0.4-0.8-0.8-0.8h-1.4
					c-0.3-1.7-1.8-3-3.6-3c-2,0-3.7,1.6-3.7,3.7C19.4,106.4,21.1,108.1,23.1,108.1z"/>
				<path class="st6" d="M16.1,115.9c1.5,0,2.8-1.1,3.2-2.5h18.6c0.4,0,0.8-0.4,0.8-0.8c0-0.4-0.3-0.8-0.8-0.8H19.3
					c-0.3-1.5-1.7-2.6-3.2-2.6c-1.8,0-3.3,1.5-3.3,3.3C12.8,114.4,14.3,115.9,16.1,115.9z"/>
				<path class="st3" d="M11.7,124.5c1.3,0,2.4-0.9,2.7-2.1h4.1c0.4,0,0.8-0.4,0.8-0.8c0-0.4-0.4-0.8-0.8-0.8h-4.1
					c-0.3-1.2-1.4-2.1-2.7-2.1c-1.6,0-2.8,1.3-2.8,2.8C8.9,123.2,10.2,124.5,11.7,124.5z"/>
			</g>
		</g>
		<text transform="matrix(1 0 0 1 68.2407 116.1816)" class="st9 st10 st11">Phenowise</text>
	</g>
</g>
<g id="Layer_3">
	<g>
		<g>
			<path class="st2" d="M52.7,58.2c-3.1,0-5.7,2.3-6.1,5.4h-25c-0.4,0-0.8,0.4-0.8,0.8c0,0.4,0.3,0.8,0.8,0.8h25
				c0.4,3,3,5.4,6.1,5.4c3.4,0,6.2-2.8,6.2-6.2C58.8,60.9,56.1,58.2,52.7,58.2z"/>
			<path class="st3" d="M48.7,73.4c-2.6,0-4.8,1.9-5.2,4.5h-2.4c-0.4,0-0.8,0.3-0.8,0.8c0,0.4,0.3,0.8,0.8,0.8h2.4
				c0.4,2.5,2.6,4.5,5.2,4.5c2.9,0,5.3-2.4,5.3-5.3C54,75.7,51.6,73.4,48.7,73.4z"/>
			<path class="st3" d="M48.7,45.4c-2.6,0-4.8,1.9-5.2,4.5h-2.4c-0.4,0-0.8,0.3-0.8,0.8c0,0.4,0.3,0.8,0.8,0.8h2.4
				c0.4,2.5,2.6,4.5,5.2,4.5c2.9,0,5.3-2.4,5.3-5.3C54,47.8,51.6,45.4,48.7,45.4z"/>
			<path class="st4" d="M18.1,63.5h-1.8c-0.4-3-3-5.4-6.1-5.4c-3.4,0-6.2,2.8-6.2,6.2c0,3.4,2.8,6.2,6.2,6.2c3.1,0,5.7-2.3,6.1-5.4
				h1.8c0.4,0,0.8-0.4,0.8-0.8C18.9,63.9,18.6,63.5,18.1,63.5z"/>
			<path class="st5" d="M37.7,49.9H19.4c-0.4-2.5-2.6-4.5-5.2-4.5c-2.9,0-5.3,2.4-5.3,5.3c0,2.9,2.4,5.3,5.3,5.3
				c2.6,0,4.8-1.9,5.2-4.5h18.3c0.4,0,0.8-0.4,0.8-0.8C38.5,50.2,38.1,49.9,37.7,49.9z"/>
			<path class="st5" d="M37.7,77.9H19.4c-0.4-2.5-2.6-4.5-5.2-4.5c-2.9,0-5.3,2.4-5.3,5.3c0,2.9,2.4,5.3,5.3,5.3
				c2.6,0,4.8-1.9,5.2-4.5h18.3c0.4,0,0.8-0.3,0.8-0.8C38.5,78.2,38.1,77.9,37.7,77.9z"/>
			<g>
				<path class="st6" d="M40.3,35.6c-2.4,0-4.3,1.7-4.7,4h-3.9c-0.4,0-0.8,0.4-0.8,0.8c0,0.4,0.3,0.8,0.8,0.8h3.9
					c0.4,2.2,2.3,4,4.7,4c2.6,0,4.7-2.1,4.7-4.7C45,37.7,42.9,35.6,40.3,35.6z"/>
				<circle class="st7" cx="31.4" cy="33.4" r="4.3"/>
				<path class="st5" d="M31.8,25h-5.6c-0.4-1.7-1.8-2.9-3.6-2.9c-2,0-3.7,1.6-3.7,3.7s1.6,3.7,3.7,3.7c1.8,0,3.2-1.2,3.6-2.9h5.6
					c0.4,0,0.8-0.4,0.8-0.8C32.6,25.3,32.2,25,31.8,25z"/>
				<path class="st8" d="M22,16.8h-3.3c-0.4-1.5-1.7-2.5-3.2-2.5c-1.8,0-3.3,1.5-3.3,3.3c0,1.8,1.5,3.3,3.3,3.3
					c1.6,0,2.9-1.1,3.2-2.5H22c0.4,0,0.8-0.4,0.8-0.8C22.8,17.2,22.5,16.8,22,16.8z"/>
				<path class="st5" d="M41.6,7.8H13.9c-0.3-1.2-1.4-2.1-2.7-2.1C9.7,5.8,8.4,7,8.4,8.6c0,1.6,1.3,2.8,2.8,2.8
					c1.3,0,2.4-0.9,2.7-2.1h27.6c0.4,0,0.8-0.4,0.8-0.8C42.4,8.2,42,7.8,41.6,7.8z"/>
				<path class="st8" d="M28.3,39.6h-1.4c-0.3-2.3-2.3-4.1-4.7-4.1c-2.6,0-4.7,2.1-4.7,4.7c0,2.6,2.1,4.7,4.7,4.7
					c2.3,0,4.2-1.6,4.6-3.8h1.4c0.4,0,0.8-0.3,0.8-0.8C29.1,39.9,28.7,39.6,28.3,39.6z"/>
				<path class="st3" d="M40.4,22.2c-1.7,0-3.2,1.2-3.6,2.8h-1.4c-0.4,0-0.8,0.3-0.8,0.8c0,0.4,0.4,0.8,0.8,0.8h1.4
					c0.3,1.7,1.8,3,3.6,3c2,0,3.7-1.6,3.7-3.7C44,23.8,42.4,22.2,40.4,22.2z"/>
				<path class="st6" d="M47.4,14.4c-1.5,0-2.8,1.1-3.2,2.5H25.6c-0.4,0-0.8,0.4-0.8,0.8c0,0.4,0.3,0.8,0.8,0.8h18.5
					c0.3,1.5,1.7,2.6,3.2,2.6c1.8,0,3.3-1.5,3.3-3.3C50.7,15.9,49.2,14.4,47.4,14.4z"/>
				<path class="st3" d="M51.7,5.8c-1.3,0-2.4,0.9-2.7,2.1h-4.1c-0.4,0-0.8,0.4-0.8,0.8c0,0.4,0.4,0.8,0.8,0.8H49
					c0.3,1.2,1.4,2.1,2.7,2.1c1.6,0,2.8-1.3,2.8-2.8C54.5,7,53.3,5.8,51.7,5.8z"/>
			</g>
			<g>
				<path class="st6" d="M22.7,93.1c2.4,0,4.3-1.7,4.7-4h3.9c0.4,0,0.8-0.4,0.8-0.8c0-0.4-0.3-0.8-0.8-0.8h-3.9
					c-0.4-2.2-2.3-4-4.7-4c-2.6,0-4.7,2.1-4.7,4.7C17.9,90.9,20.1,93.1,22.7,93.1z"/>
				<circle class="st7" cx="31.5" cy="95.3" r="4.3"/>
				<path class="st5" d="M31.1,103.7h5.6c0.4,1.7,1.8,2.9,3.6,2.9c2,0,3.7-1.6,3.7-3.7s-1.6-3.7-3.7-3.7c-1.8,0-3.2,1.2-3.6,2.9
					h-5.6c-0.4,0-0.8,0.4-0.8,0.8C30.3,103.3,30.7,103.7,31.1,103.7z"/>
				<path class="st8" d="M40.9,111.8h3.3c0.4,1.5,1.7,2.5,3.2,2.5c1.8,0,3.3-1.5,3.3-3.3s-1.5-3.3-3.3-3.3c-1.6,0-2.9,1.1-3.2,2.5
					h-3.3c-0.4,0-0.8,0.4-0.8,0.8C40.1,111.5,40.5,111.8,40.9,111.8z"/>
				<path class="st5" d="M21.3,120.8H49c0.3,1.2,1.4,2.1,2.7,2.1c1.6,0,2.8-1.3,2.8-2.8c0-1.6-1.3-2.8-2.8-2.8
					c-1.3,0-2.4,0.9-2.7,2.1H21.3c-0.4,0-0.8,0.4-0.8,0.8C20.6,120.5,20.9,120.8,21.3,120.8z"/>
				<path class="st8" d="M34.6,89.1H36c0.3,2.3,2.3,4.1,4.7,4.1c2.6,0,4.7-2.1,4.7-4.7c0-2.6-2.1-4.7-4.7-4.7
					c-2.3,0-4.2,1.6-4.6,3.8h-1.4c-0.4,0-0.8,0.3-0.8,0.8C33.8,88.7,34.2,89.1,34.6,89.1z"/>
				<path class="st3" d="M22.6,106.5c1.7,0,3.2-1.2,3.6-2.8h1.4c0.4,0,0.8-0.3,0.8-0.8c0-0.4-0.4-0.8-0.8-0.8h-1.4
					c-0.3-1.7-1.8-3-3.6-3c-2,0-3.7,1.6-3.7,3.7C18.9,104.8,20.5,106.5,22.6,106.5z"/>
				<path class="st6" d="M15.6,114.3c1.5,0,2.8-1.1,3.2-2.5h18.6c0.4,0,0.8-0.4,0.8-0.8c0-0.4-0.3-0.8-0.8-0.8H18.8
					c-0.3-1.5-1.7-2.6-3.2-2.6c-1.8,0-3.3,1.5-3.3,3.3C12.2,112.8,13.7,114.3,15.6,114.3z"/>
				<path class="st3" d="M11.2,122.9c1.3,0,2.4-0.9,2.7-2.1h4.1c0.4,0,0.8-0.4,0.8-0.8c0-0.4-0.4-0.8-0.8-0.8h-4.1
					c-0.3-1.2-1.4-2.1-2.7-2.1c-1.6,0-2.8,1.3-2.8,2.8C8.4,121.6,9.7,122.9,11.2,122.9z"/>
			</g>
		</g>
		<g>
			<path class="st9" d="M109.7,17.7c15.1,0,26.6,2.6,34.7,7.9c8.1,5.3,12.1,14,12.1,26c0,12.1-4.1,20.9-12.2,26.3s-19.8,8.1-35,8.1
				h-7.1v33.8H79.4V20.3c5-1,10.2-1.7,15.7-2C100.6,17.9,105.5,17.7,109.7,17.7z M111.1,37.1c-1.7,0-3.3,0-4.9,0.1
				c-1.6,0.1-3,0.2-4.2,0.3v29.1h7.1c7.9,0,13.8-1.1,17.8-3.2c4-2.1,6-6.1,6-11.9c0-2.8-0.5-5.1-1.5-7c-1-1.8-2.5-3.3-4.4-4.4
				c-1.9-1.1-4.2-1.9-6.9-2.3C117.4,37.3,114.4,37.1,111.1,37.1z"/>
			<path class="st9" d="M171.7,119.8V10.3l21.7-3.5v36.7c1.5-0.5,3.3-0.9,5.6-1.4c2.3-0.4,4.5-0.7,6.6-0.7c6.2,0,11.4,0.9,15.5,2.5
				c4.1,1.7,7.4,4.1,9.9,7.2c2.5,3.1,4.2,6.8,5.2,11.1c1,4.3,1.5,9,1.5,14.3v43.3h-21.7V79.2c0-7-0.9-11.9-2.7-14.9
				c-1.8-2.9-5.1-4.4-10-4.4c-1.9,0-3.8,0.2-5.5,0.5c-1.7,0.3-3.2,0.7-4.6,1.1v58.3H171.7z"/>
			<path class="st9" d="M253.9,82.1c0-6.8,1-12.7,3.1-17.8c2.1-5.1,4.8-9.3,8.2-12.7c3.4-3.4,7.3-6,11.7-7.7c4.4-1.7,9-2.6,13.6-2.6
				c10.9,0,19.5,3.3,25.8,10c6.3,6.7,9.5,16.4,9.5,29.4c0,1.3-0.1,2.6-0.1,4.2c-0.1,1.5-0.2,2.8-0.3,4h-49.2c0.5,4.5,2.6,8,6.3,10.6
				c3.7,2.6,8.6,3.9,14.9,3.9c4,0,7.9-0.4,11.7-1.1c3.8-0.7,7-1.6,9.4-2.7l2.9,17.6c-1.2,0.6-2.7,1.2-4.7,1.7
				c-1.9,0.6-4.1,1.1-6.5,1.5c-2.4,0.4-4.9,0.8-7.6,1.1c-2.7,0.3-5.4,0.4-8.2,0.4c-6.9,0-12.9-1-18-3.1c-5.1-2-9.3-4.8-12.7-8.4
				c-3.4-3.5-5.8-7.7-7.4-12.6C254.7,93,253.9,87.7,253.9,82.1z M304.9,73.8c-0.1-1.8-0.4-3.6-0.9-5.4c-0.5-1.7-1.4-3.3-2.5-4.7
				c-1.1-1.4-2.5-2.5-4.2-3.4c-1.7-0.9-3.8-1.3-6.3-1.3c-2.4,0-4.5,0.4-6.3,1.2c-1.7,0.8-3.2,1.9-4.4,3.3c-1.2,1.4-2.1,2.9-2.7,4.7
				c-0.6,1.8-1.1,3.6-1.4,5.5H304.9z"/>
			<path class="st9" d="M342.6,45.8c3.7-1.1,8.5-2.1,14.3-3c5.8-0.9,11.9-1.4,18.4-1.4c6.5,0,11.9,0.9,16.2,2.5
				c4.3,1.7,7.7,4.1,10.3,7.2c2.5,3.1,4.3,6.8,5.4,11.1c1.1,4.3,1.6,9,1.6,14.3v43.3h-21.7V79.2c0-7-0.9-11.9-2.8-14.9
				C382.5,61.4,379,60,374,60c-1.6,0-3.2,0.1-5,0.2s-3.3,0.3-4.7,0.5v59.2h-21.7V45.8z"/>
			<path class="st9" d="M500.1,81.4c0,6-0.9,11.5-2.6,16.5c-1.7,5-4.3,9.3-7.6,12.8c-3.3,3.5-7.3,6.3-11.9,8.2
				c-4.6,1.9-9.8,2.9-15.5,2.9c-5.6,0-10.8-1-15.4-2.9c-4.6-1.9-8.6-4.7-11.9-8.2c-3.3-3.5-5.9-7.8-7.7-12.8
				c-1.8-5-2.8-10.5-2.8-16.5c0-6,0.9-11.5,2.8-16.5c1.9-5,4.5-9.2,7.9-12.7c3.4-3.5,7.3-6.2,11.9-8.2c4.6-1.9,9.6-2.9,15.1-2.9
				c5.5,0,10.6,1,15.2,2.9c4.6,1.9,8.6,4.7,11.9,8.2c3.3,3.5,5.9,7.7,7.7,12.7C499.2,69.9,500.1,75.4,500.1,81.4z M478,81.4
				c0-6.7-1.3-12-4-15.8c-2.7-3.8-6.5-5.8-11.4-5.8s-8.8,1.9-11.5,5.8c-2.7,3.8-4.1,9.1-4.1,15.8s1.4,12,4.1,16
				c2.7,3.9,6.6,5.9,11.5,5.9s8.8-2,11.4-5.9C476.7,93.4,478,88.1,478,81.4z"/>
			<path class="st9" d="M561.9,75.8c-1.9,7.4-4,14.7-6.2,22s-4.5,14.6-6.9,22h-16.9c-1.8-4.1-3.7-8.9-5.7-14.6
				c-2-5.6-4.2-11.8-6.4-18.4c-2.2-6.7-4.4-13.7-6.7-21.1s-4.5-14.9-6.6-22.5h22.9c0.8,3.5,1.6,7.3,2.6,11.4
				c0.9,4.1,1.9,8.4,2.9,12.7c1,4.4,2.1,8.8,3.2,13.2c1.1,4.4,2.3,8.7,3.4,12.7c1.3-4.3,2.5-8.6,3.7-13.1c1.2-4.5,2.4-8.9,3.5-13.2
				c1.1-4.3,2.2-8.5,3.2-12.5c1-4,1.9-7.8,2.7-11.3h15.7c0.8,3.5,1.7,7.3,2.6,11.3c1,4,2,8.2,3.1,12.5c1.1,4.3,2.2,8.7,3.4,13.2
				c1.2,4.5,2.4,8.8,3.6,13.1c1.2-4.1,2.3-8.3,3.5-12.7c1.2-4.4,2.3-8.8,3.3-13.2c1-4.4,2-8.6,2.9-12.7c0.9-4.1,1.8-7.9,2.6-11.4
				h22.6c-2.1,7.6-4.4,15.1-6.7,22.5c-2.3,7.4-4.5,14.5-6.7,21.1c-2.2,6.7-4.3,12.8-6.4,18.4c-2.1,5.6-4,10.5-5.8,14.6h-16.9
				c-2.4-7.4-4.8-14.7-7.1-22S563.8,83.2,561.9,75.8z"/>
			<path class="st9" d="M653.1,21.1c0,4-1.3,7.1-3.9,9.4c-2.6,2.3-5.6,3.4-9.1,3.4c-3.5,0-6.5-1.1-9.1-3.4c-2.6-2.3-3.9-5.4-3.9-9.4
				c0-4,1.3-7.1,3.9-9.4c2.6-2.3,5.6-3.4,9.1-3.4c3.5,0,6.5,1.1,9.1,3.4C651.8,13.9,653.1,17.1,653.1,21.1z M651.1,119.8h-21.7V43.2
				h21.7V119.8z"/>
			<path class="st9" d="M693.5,104.3c4,0,6.8-0.4,8.5-1.2c1.7-0.8,2.5-2.3,2.5-4.5c0-1.7-1.1-3.3-3.2-4.6c-2.1-1.3-5.4-2.8-9.8-4.4
				c-3.4-1.3-6.5-2.6-9.3-3.9c-2.8-1.4-5.1-3-7.1-4.9c-1.9-1.9-3.4-4.2-4.5-6.8c-1.1-2.6-1.6-5.8-1.6-9.5c0-7.2,2.7-12.9,8-17
				c5.3-4.2,12.7-6.3,22-6.3c4.7,0,9.1,0.4,13.4,1.2c4.3,0.8,7.7,1.7,10.2,2.7L718.8,62c-2.5-0.9-5.3-1.7-8.2-2.3c-3-0.7-6.3-1-10-1
				c-6.8,0-10.2,1.9-10.2,5.7c0,0.9,0.1,1.7,0.4,2.3c0.3,0.7,0.9,1.3,1.7,2c0.9,0.6,2.1,1.3,3.6,2c1.5,0.7,3.4,1.5,5.8,2.4
				c4.8,1.8,8.7,3.5,11.8,5.2c3.1,1.7,5.6,3.6,7.4,5.6c1.8,2,3.1,4.2,3.8,6.6c0.7,2.4,1.1,5.2,1.1,8.4c0,7.6-2.8,13.3-8.5,17.2
				c-5.7,3.9-13.7,5.8-24.1,5.8c-6.8,0-12.5-0.6-17-1.7c-4.5-1.2-7.6-2.1-9.4-2.9l3.6-17.6c3.7,1.5,7.5,2.6,11.4,3.4
				C685.9,103.8,689.7,104.3,693.5,104.3z"/>
			<path class="st9" d="M738.5,82.1c0-6.8,1-12.7,3.1-17.8c2.1-5.1,4.8-9.3,8.2-12.7c3.4-3.4,7.3-6,11.7-7.7c4.4-1.7,9-2.6,13.6-2.6
				c10.9,0,19.5,3.3,25.8,10c6.3,6.7,9.5,16.4,9.5,29.4c0,1.3,0,2.6-0.1,4.2c-0.1,1.5-0.2,2.8-0.3,4h-49.2c0.5,4.5,2.6,8,6.3,10.6
				c3.7,2.6,8.6,3.9,14.9,3.9c4,0,7.9-0.4,11.7-1.1c3.8-0.7,7-1.6,9.4-2.7l2.9,17.6c-1.2,0.6-2.7,1.2-4.7,1.7
				c-1.9,0.6-4.1,1.1-6.5,1.5c-2.4,0.4-4.9,0.8-7.6,1.1c-2.7,0.3-5.4,0.4-8.2,0.4c-6.9,0-12.9-1-18-3.1c-5.1-2-9.3-4.8-12.7-8.4
				c-3.4-3.5-5.8-7.7-7.4-12.6C739.3,93,738.5,87.7,738.5,82.1z M789.5,73.8c-0.1-1.8-0.4-3.6-0.9-5.4c-0.5-1.7-1.4-3.3-2.5-4.7
				c-1.1-1.4-2.5-2.5-4.2-3.4c-1.7-0.9-3.8-1.3-6.3-1.3c-2.4,0-4.5,0.4-6.3,1.2c-1.7,0.8-3.2,1.9-4.4,3.3c-1.2,1.4-2.1,2.9-2.7,4.7
				c-0.6,1.8-1.1,3.6-1.4,5.5H789.5z"/>
		</g>
	</g>
</g>
</svg>
