<svg width="20" height="20" viewBox="0 0 20 20" fill="none" xmlns="http://www.w3.org/2000/svg">
<path d="M14.1667 17.0833H5.83335C3.33335 17.0833 1.66669 15.8333 1.66669 12.9167V7.08333C1.66669 4.16667 3.33335 2.91667 5.83335 2.91667H14.1667C16.6667 2.91667 18.3334 4.16667 18.3334 7.08333V12.9167C18.3334 15.8333 16.6667 17.0833 14.1667 17.0833Z" stroke="#023047" stroke-width="1.5" stroke-miterlimit="10" stroke-linecap="round" stroke-linejoin="round"/>
<path d="M13.8087 11.7862C12.519 11.4885 11.3186 11.2275 11.8999 10.1294C13.6699 6.78731 12.369 5 10.5003 5C8.59452 5 7.32623 6.85594 9.10079 10.1294C9.69968 11.2338 8.45389 11.4948 7.19197 11.7862C6.03956 12.0525 5.99643 12.6248 6.00018 13.6253L6.00168 14.0003H14.9982L14.9997 13.6369C15.0042 12.6289 14.9652 12.0536 13.8087 11.7862V11.7862Z" fill="#023047"/>
</svg>
