<svg width="19" height="16" viewBox="0 0 19 16" fill="none" xmlns="http://www.w3.org/2000/svg">
<path d="M13.5 15.1667H5.16667C2.66667 15.1667 1 13.9167 1 11V5.16667C1 2.25 2.66667 1 5.16667 1H13.5C16 1 17.6667 2.25 17.6667 5.16667V11C17.6667 13.9167 16 15.1667 13.5 15.1667Z" stroke="#023047" stroke-width="1.5" stroke-miterlimit="10" stroke-linecap="round" stroke-linejoin="round"/>
<path d="M7.47682 4.33402C6.95659 4.60582 6.78713 5.2691 6.88196 6.12922C6.97629 6.98495 7.33079 8.01202 7.82605 8.97331C8.3213 9.93456 8.95491 10.8254 9.60399 11.4103C10.2562 11.998 10.9066 12.2625 11.4459 12.0166L11.8032 11.8422L10.9046 10.1079L10.5217 10.2944L7.47682 4.33402ZM7.47682 4.33402L7.85764 4.14641M7.47682 4.33402L7.85764 4.14641M7.85764 4.14641L8.74838 5.88674L8.37502 6.07101L8.37501 6.07098L8.37353 6.07178C8.01373 6.26463 7.89577 6.6791 7.92803 7.15723C7.96044 7.63743 8.14443 8.19886 8.41042 8.71501C8.67642 9.23118 9.02698 9.70704 9.39666 10.0141C9.76425 10.3194 10.1654 10.4686 10.5217 10.2945L7.85764 4.14641ZM8.30481 2.97721L8.28287 2.93437L8.23923 2.95466L7.05628 3.50454L7.07736 3.54988L7.05425 3.50554C6.22678 3.93686 5.91482 4.84321 5.95312 5.91573C5.99145 6.98917 6.38008 8.24263 6.97047 9.39415C7.5609 10.5457 8.35572 11.6004 9.21098 12.2742C10.0652 12.9472 10.9911 13.2479 11.8337 12.863L11.834 12.8629C11.8533 12.8539 12.1509 12.7083 12.4425 12.5656L12.8418 12.3701L12.9725 12.306L13.0091 12.2881L13.0187 12.2834L13.0212 12.2822L13.0218 12.2819L13.0219 12.2818L13.022 12.2818L13 12.2369L13.022 12.2818L13.0679 12.2593L13.0444 12.2139L11.3349 8.91461L11.3123 8.87113L11.2684 8.89275L11.2905 8.93761L11.2684 8.89276L11.2683 8.89278L11.2682 8.89285L11.2676 8.89314L11.2653 8.89427L11.2563 8.89869L11.2222 8.9155L11.1 8.97568C10.9988 9.02559 10.8634 9.09239 10.7268 9.15994C10.5903 9.22749 10.4525 9.29581 10.3465 9.34877C10.2935 9.37525 10.2484 9.39793 10.2153 9.41476C10.1969 9.4241 10.181 9.43226 10.1695 9.43839C10.1275 9.43091 10.0729 9.40257 10.007 9.34891C9.93522 9.29039 9.85591 9.20669 9.773 9.10361C9.60733 8.89762 9.43142 8.61941 9.27663 8.32495C9.12185 8.03052 8.98923 7.72186 8.9093 7.45542C8.86932 7.32215 8.84292 7.20073 8.83315 7.09769C8.82424 7.00372 8.8296 6.92926 8.84776 6.87579L9.96322 6.32666L10.0088 6.30423L9.98564 6.25901L8.30481 2.97721Z" fill="#023047" stroke="black" stroke-width="0.1"/>
</svg>
