<svg width="20" height="20" viewBox="0 0 20 20" fill="none" xmlns="http://www.w3.org/2000/svg">
<path d="M14.1667 17.0833H5.83335C3.33335 17.0833 1.66669 15.8333 1.66669 12.9167V7.08333C1.66669 4.16666 3.33335 2.91666 5.83335 2.91666H14.1667C16.6667 2.91666 18.3334 4.16666 18.3334 7.08333V12.9167C18.3334 15.8333 16.6667 17.0833 14.1667 17.0833Z" stroke="#023047" stroke-width="1.5" stroke-miterlimit="10" stroke-linecap="round" stroke-linejoin="round"/>
<path d="M13.5004 14.19L12.07 11.4295C12.0667 11.4311 11.268 11.8236 11.2315 11.8402C10.3214 12.2814 8.46929 8.66326 9.359 8.18631L10.2052 7.76948L8.78617 5L7.93058 5.42211C5.00469 6.94762 9.65029 15.9776 12.6432 14.6097C12.6924 14.5874 13.4972 14.1917 13.5004 14.19Z" fill="black"/>
</svg>
